<svg xmlns="http://www.w3.org/2000/svg" width="1800" height="1180" viewBox="0 0 1800 1180">
  <defs>
    <style>
      .state { fill: #52eef0; stroke: #000000; stroke-width: 2; }
      .text { font-family: Arial, "DejaVu Sans", sans-serif; font-size: 20px; }
      .small { font-family: Arial, "DejaVu Sans", sans-serif; font-size: 18px; }
      .line { fill: none; stroke: #000000; stroke-width: 2; }
    </style>
    <marker id="arrow" markerWidth="12" markerHeight="12" refX="10" refY="6" orient="auto">
      <path d="M0,0 L12,6 L0,12 z" fill="#000000"/>
    </marker>
  </defs>

  <circle cx="900" cy="50" r="18" fill="#000000"/>

  <rect class="state" x="780" y="110" width="240" height="80" rx="16" ry="16"/>
  <text class="text" x="900" y="145" text-anchor="middle">Авторизация</text>
  <text class="text" x="900" y="172" text-anchor="middle">и регистрация</text>

  <polygon points="900,230 980,290 900,350 820,290" class="state"/>
  <text class="small" x="900" y="285" text-anchor="middle">успешный</text>
  <text class="small" x="900" y="307" text-anchor="middle">вход</text>

  <rect class="state" x="770" y="400" width="260" height="80" rx="16" ry="16"/>
  <text class="text" x="900" y="435" text-anchor="middle">Список курсов</text>
  <text class="text" x="900" y="462" text-anchor="middle">пользователя</text>

  <rect class="state" x="350" y="570" width="240" height="76" rx="16" ry="16"/>
  <text class="text" x="470" y="614" text-anchor="middle">Профиль</text>

  <rect class="state" x="780" y="570" width="240" height="76" rx="16" ry="16"/>
  <text class="text" x="900" y="614" text-anchor="middle">Уведомления</text>

  <rect class="state" x="1210" y="570" width="260" height="76" rx="16" ry="16"/>
  <text class="text" x="1340" y="614" text-anchor="middle">Доступные файлы</text>

  <rect class="state" x="250" y="770" width="360" height="88" rx="16" ry="16"/>
  <text class="text" x="430" y="806" text-anchor="middle">Курс для преподавателя</text>
  <text class="text" x="430" y="833" text-anchor="middle">и администратора</text>

  <rect class="state" x="1180" y="770" width="260" height="88" rx="16" ry="16"/>
  <text class="text" x="1310" y="806" text-anchor="middle">Курс</text>
  <text class="text" x="1310" y="833" text-anchor="middle">для студента</text>

  <rect class="state" x="70" y="960" width="200" height="76" rx="16" ry="16"/>
  <text class="text" x="170" y="1004" text-anchor="middle">Группы</text>

  <rect class="state" x="330" y="960" width="200" height="76" rx="16" ry="16"/>
  <text class="text" x="430" y="1004" text-anchor="middle">Задание</text>

  <rect class="state" x="590" y="960" width="200" height="76" rx="16" ry="16"/>
  <text class="text" x="690" y="1004" text-anchor="middle">Ведомость</text>

  <rect class="state" x="850" y="960" width="240" height="76" rx="16" ry="16"/>
  <text class="text" x="970" y="992" text-anchor="middle">Очередь</text>
  <text class="text" x="970" y="1019" text-anchor="middle">проверки</text>

  <rect class="state" x="1350" y="960" width="220" height="76" rx="16" ry="16"/>
  <text class="text" x="1460" y="1004" text-anchor="middle">Чат курса</text>

  <rect class="state" x="1600" y="960" width="170" height="76" rx="16" ry="16"/>
  <text class="text" x="1685" y="992" text-anchor="middle">Задание</text>
  <text class="text" x="1685" y="1019" text-anchor="middle">студента</text>

  <rect class="state" x="1110" y="960" width="200" height="76" rx="16" ry="16"/>
  <text class="text" x="1210" y="992" text-anchor="middle">Видео-</text>
  <text class="text" x="1210" y="1019" text-anchor="middle">комната</text>

  <rect class="state" x="1140" y="1070" width="220" height="70" rx="16" ry="16"/>
  <text class="text" x="1250" y="1112" text-anchor="middle">Журнал аудита</text>

  <circle cx="900" cy="1130" r="18" fill="#ffffff" stroke="#000000" stroke-width="2"/>
  <circle cx="900" cy="1130" r="10" fill="#000000"/>

  <line class="line" x1="900" y1="68" x2="900" y2="110" marker-end="url(#arrow)"/>
  <line class="line" x1="900" y1="190" x2="900" y2="230" marker-end="url(#arrow)"/>
  <line class="line" x1="900" y1="350" x2="900" y2="400" marker-end="url(#arrow)"/>

  <line class="line" x1="770" y1="440" x2="590" y2="608" marker-end="url(#arrow)"/>
  <text class="small" x="640" y="520">открыть</text>
  <line class="line" x1="900" y1="480" x2="900" y2="570" marker-end="url(#arrow)"/>
  <text class="small" x="922" y="530">открыть</text>
  <line class="line" x1="1030" y1="440" x2="1210" y2="608" marker-end="url(#arrow)"/>
  <text class="small" x="1110" y="520">открыть</text>

  <line class="line" x1="470" y1="646" x2="470" y2="770" marker-end="url(#arrow)"/>
  <text class="small" x="492" y="715">перейти</text>
  <line class="line" x1="1340" y1="646" x2="1310" y2="770" marker-end="url(#arrow)"/>
  <text class="small" x="1360" y="715">перейти</text>
  <line class="line" x1="900" y1="646" x2="900" y2="730"/>
  <line class="line" x1="900" y1="730" x2="430" y2="730" marker-end="url(#arrow)"/>
  <text class="small" x="710" y="708">роль преподавателя/администратора</text>
  <line class="line" x1="900" y1="690" x2="1310" y2="690" marker-end="url(#arrow)"/>
  <text class="small" x="1080" y="670">роль студента</text>

  <line class="line" x1="430" y1="858" x2="170" y2="960" marker-end="url(#arrow)"/>
  <line class="line" x1="430" y1="858" x2="430" y2="960" marker-end="url(#arrow)"/>
  <line class="line" x1="430" y1="858" x2="690" y2="960" marker-end="url(#arrow)"/>
  <line class="line" x1="430" y1="858" x2="970" y2="960" marker-end="url(#arrow)"/>
  <line class="line" x1="430" y1="858" x2="1250" y2="1070" marker-end="url(#arrow)"/>

  <line class="line" x1="1310" y1="858" x2="1210" y2="960" marker-end="url(#arrow)"/>
  <line class="line" x1="1310" y1="858" x2="1460" y2="960" marker-end="url(#arrow)"/>
  <line class="line" x1="1310" y1="858" x2="1685" y2="960" marker-end="url(#arrow)"/>

  <path class="line" d="M470 570 L470 520 L900 520 L900 480" marker-end="url(#arrow)"/>
  <text class="small" x="640" y="500">назад</text>
  <line class="line" x1="900" y1="570" x2="900" y2="480" marker-end="url(#arrow)"/>
  <text class="small" x="922" y="525">назад</text>
  <path class="line" d="M1340 570 L1340 500 L900 500 L900 480" marker-end="url(#arrow)"/>
  <text class="small" x="1180" y="480">назад</text>

  <path class="line" d="M170 1036 L170 1088 L900 1088 L900 1112" marker-end="url(#arrow)"/>
  <path class="line" d="M430 1036 L430 1088 L900 1088 L900 1112" marker-end="url(#arrow)"/>
  <path class="line" d="M690 1036 L690 1088 L900 1088 L900 1112" marker-end="url(#arrow)"/>
  <path class="line" d="M970 1036 L970 1088 L900 1088 L900 1112" marker-end="url(#arrow)"/>
  <path class="line" d="M1210 1036 L1210 1112 L918 1112" marker-end="url(#arrow)"/>
  <path class="line" d="M1460 1036 L1460 1100 L918 1100" marker-end="url(#arrow)"/>
  <path class="line" d="M1685 1036 L1685 1094 L918 1094" marker-end="url(#arrow)"/>
  <line class="line" x1="1250" y1="1140" x2="918" y2="1130" marker-end="url(#arrow)"/>

  <text class="small" x="1010" y="1082">выход</text>
</svg>
